<svg id="svg" version="1.1" xmlns="http://www.w3.org/2000/svg" xmlns:xlink="http://www.w3.org/1999/xlink" width="400" height="418.04511278195486" viewBox="0, 0, 400,418.04511278195486"><g id="svgg"><path id="path0" d="M125.296 127.700 L 125.400 148.200 139.000 148.400 C 150.976 148.576,152.743 148.683,153.800 149.298 C 154.460 149.681,155.149 149.996,155.331 149.998 C 155.918 150.002,157.796 152.145,159.014 154.200 L 160.200 156.200 160.200 211.000 C 160.200 255.028,160.098 265.997,159.683 266.800 C 158.456 269.172,157.946 269.860,156.351 271.288 C 155.423 272.120,154.281 272.800,153.812 272.800 C 153.343 272.800,152.735 273.025,152.460 273.300 C 152.083 273.677,148.684 273.819,138.680 273.878 L 125.400 273.956 125.296 294.578 L 125.193 315.200 194.596 315.200 L 264.000 315.200 264.000 294.600 C 264.000 275.256,263.957 273.999,263.300 273.978 C 262.915 273.966,257.240 273.976,250.689 273.999 C 234.583 274.056,231.633 273.008,229.306 266.402 C 228.471 264.031,228.589 158.197,229.429 155.626 C 230.031 153.788,232.973 150.003,233.805 149.998 C 234.022 149.996,234.740 149.681,235.400 149.298 C 236.457 148.683,238.224 148.576,250.200 148.400 L 263.800 148.200 263.904 127.700 L 264.007 107.200 194.600 107.200 L 125.193 107.200 125.296 127.700 " stroke="none" fill="#fb542c" fill-rule="evenodd"></path><path id="path1" d="M114.700 94.274 C 114.315 94.376,114.000 94.709,114.000 95.015 C 114.000 95.321,113.640 95.765,113.200 96.000 C 112.000 96.642,111.933 158.254,113.131 159.338 C 113.788 159.932,115.610 160.000,130.931 160.000 L 148.000 160.000 148.000 210.383 L 148.000 260.767 131.133 260.883 C 117.323 260.979,114.233 261.099,114.085 261.545 C 113.985 261.845,113.565 262.380,113.152 262.734 C 112.428 263.354,112.400 264.540,112.400 294.427 L 112.400 325.476 113.242 326.238 C 114.086 327.002,269.114 327.727,274.300 326.992 L 276.000 326.751 276.000 294.652 C 276.000 267.569,275.911 262.432,275.433 261.776 C 274.889 261.032,274.161 260.995,258.033 260.883 L 241.200 260.767 241.200 210.388 L 241.200 160.008 258.500 159.904 L 275.800 159.800 275.889 127.800 C 275.966 99.743,275.903 95.701,275.372 95.000 C 274.798 94.243,117.514 93.533,114.700 94.274 M265.111 105.423 L 266.000 106.045 266.000 127.346 C 266.000 145.100,265.906 148.776,265.433 149.424 C 264.895 150.159,264.138 150.210,250.933 150.400 C 234.063 150.642,233.684 150.745,231.300 155.737 L 230.400 157.621 230.400 211.224 L 230.400 264.827 231.360 266.713 C 233.772 271.451,234.365 271.600,250.849 271.600 C 263.867 271.600,264.431 271.631,265.200 272.400 C 266.336 273.536,266.467 315.221,265.338 316.469 C 264.385 317.522,124.880 317.623,123.829 316.571 C 123.273 316.016,123.200 313.451,123.200 294.394 L 123.200 272.845 124.089 272.223 C 124.850 271.690,126.875 271.600,138.143 271.600 C 154.930 271.600,156.159 271.241,157.978 265.800 C 159.248 262.000,159.254 160.278,157.984 156.578 C 156.000 150.795,155.467 150.629,138.405 150.476 C 126.458 150.368,124.515 150.266,123.905 149.714 C 123.248 149.120,123.200 147.596,123.200 127.561 L 123.200 106.045 124.089 105.423 C 124.885 104.865,132.234 104.800,194.600 104.800 C 256.966 104.800,264.315 104.865,265.111 105.423 " stroke="none" fill="#122b4b" fill-rule="evenodd"></path><path id="path2" d="M124.435 106.157 C 123.808 106.913,123.812 148.291,124.439 149.047 C 124.767 149.442,127.975 149.588,138.333 149.680 C 155.138 149.830,155.938 150.070,158.500 155.739 C 159.156 157.189,159.200 160.703,159.200 211.032 L 159.200 264.777 158.255 266.914 C 156.005 272.002,154.523 272.400,137.837 272.400 C 125.498 272.400,124.807 272.439,124.424 273.155 C 123.746 274.423,123.822 315.194,124.504 315.876 C 125.229 316.601,263.793 316.670,264.666 315.946 C 265.595 315.174,265.437 274.371,264.500 273.256 C 263.819 272.446,263.420 272.421,249.934 272.312 L 236.067 272.200 234.334 270.987 C 233.380 270.320,232.015 268.905,231.300 267.842 L 230.000 265.910 230.000 211.341 L 230.000 156.773 230.994 154.812 C 233.406 150.052,235.159 149.600,251.202 149.600 C 262.972 149.600,263.923 149.548,264.538 148.869 C 265.335 147.988,265.569 107.837,264.786 106.374 C 264.236 105.346,125.287 105.131,124.435 106.157 M263.752 106.515 C 264.590 107.128,264.808 147.752,263.978 148.582 C 263.709 148.851,259.011 149.031,250.773 149.087 C 234.690 149.196,233.141 149.613,230.663 154.510 L 229.592 156.628 229.696 211.614 L 229.800 266.600 231.005 268.384 C 231.667 269.366,232.988 270.716,233.938 271.384 L 235.667 272.600 249.604 272.723 C 260.103 272.816,263.643 272.970,263.954 273.344 C 264.410 273.895,264.659 314.857,264.211 315.583 C 263.814 316.224,125.522 316.162,124.880 315.520 C 124.214 314.854,124.189 275.301,124.854 273.842 L 125.307 272.846 139.372 272.723 C 151.765 272.615,153.559 272.520,154.467 271.925 C 156.461 270.617,157.923 268.981,158.757 267.122 L 159.600 265.244 159.600 211.009 L 159.600 156.773 158.636 154.887 C 155.903 149.540,154.126 149.040,138.262 149.161 C 127.063 149.247,125.854 149.192,125.162 148.566 C 124.060 147.568,123.965 107.943,125.062 106.731 C 125.925 105.778,262.453 105.565,263.752 106.515 " stroke="none" fill="#98433c" fill-rule="evenodd"></path><path id="path3" d="M125.062 106.731 C 123.965 107.943,124.060 147.568,125.162 148.566 C 125.854 149.192,127.063 149.247,138.262 149.161 C 154.126 149.040,155.903 149.540,158.636 154.887 L 159.600 156.773 159.600 211.009 L 159.600 265.244 158.757 267.122 C 157.923 268.981,156.461 270.617,154.467 271.925 C 153.559 272.520,151.765 272.615,139.372 272.723 L 125.307 272.846 124.854 273.842 C 124.189 275.301,124.214 314.854,124.880 315.520 C 125.522 316.162,263.814 316.224,264.211 315.583 C 264.659 314.857,264.410 273.895,263.954 273.344 C 263.643 272.970,260.103 272.816,249.604 272.723 L 235.667 272.600 233.938 271.384 C 232.988 270.716,231.667 269.366,231.005 268.384 L 229.800 266.600 229.696 211.614 L 229.592 156.628 230.663 154.510 C 233.141 149.613,234.690 149.196,250.773 149.087 C 259.011 149.031,263.709 148.851,263.978 148.582 C 264.808 147.752,264.590 107.128,263.752 106.515 C 262.453 105.565,125.925 105.778,125.062 106.731 M263.904 127.700 L 263.800 148.200 250.200 148.400 C 238.224 148.576,236.457 148.683,235.400 149.298 C 234.740 149.681,234.022 149.996,233.805 149.998 C 232.973 150.003,230.031 153.788,229.429 155.626 C 228.589 158.197,228.471 264.031,229.306 266.402 C 231.633 273.008,234.583 274.056,250.689 273.999 C 257.240 273.976,262.915 273.966,263.300 273.978 C 263.957 273.999,264.000 275.256,264.000 294.600 L 264.000 315.200 194.596 315.200 L 125.193 315.200 125.296 294.578 L 125.400 273.956 138.680 273.878 C 148.684 273.819,152.083 273.677,152.460 273.300 C 152.735 273.025,153.343 272.800,153.812 272.800 C 154.281 272.800,155.423 272.120,156.351 271.288 C 157.946 269.860,158.456 269.172,159.683 266.800 C 160.098 265.997,160.200 255.028,160.200 211.000 L 160.200 156.200 159.014 154.200 C 157.796 152.145,155.918 150.002,155.331 149.998 C 155.149 149.996,154.460 149.681,153.800 149.298 C 152.743 148.683,150.976 148.576,139.000 148.400 L 125.400 148.200 125.296 127.700 L 125.193 107.200 194.600 107.200 L 264.007 107.200 263.904 127.700 " stroke="none" fill="#cf4c34" fill-rule="evenodd"></path><path id="path4" d="M124.089 105.423 L 123.200 106.045 123.200 127.561 C 123.200 147.596,123.248 149.120,123.905 149.714 C 124.515 150.266,126.458 150.368,138.405 150.476 C 155.467 150.629,156.000 150.795,157.984 156.578 C 159.254 160.278,159.248 262.000,157.978 265.800 C 156.159 271.241,154.930 271.600,138.143 271.600 C 126.875 271.600,124.850 271.690,124.089 272.223 L 123.200 272.845 123.200 294.394 C 123.200 313.451,123.273 316.016,123.829 316.571 C 124.880 317.623,264.385 317.522,265.338 316.469 C 266.467 315.221,266.336 273.536,265.200 272.400 C 264.431 271.631,263.867 271.600,250.849 271.600 C 234.365 271.600,233.772 271.451,231.360 266.713 L 230.400 264.827 230.400 211.224 L 230.400 157.621 231.300 155.737 C 233.684 150.745,234.063 150.642,250.933 150.400 C 264.138 150.210,264.895 150.159,265.433 149.424 C 265.906 148.776,266.000 145.100,266.000 127.346 L 266.000 106.045 265.111 105.423 C 263.753 104.472,125.447 104.472,124.089 105.423 M264.786 106.374 C 265.569 107.837,265.335 147.988,264.538 148.869 C 263.923 149.548,262.972 149.600,251.202 149.600 C 235.159 149.600,233.406 150.052,230.994 154.812 L 230.000 156.773 230.000 211.341 L 230.000 265.910 231.300 267.842 C 232.015 268.905,233.380 270.320,234.334 270.987 L 236.067 272.200 249.934 272.312 C 263.420 272.421,263.819 272.446,264.500 273.256 C 265.437 274.371,265.595 315.174,264.666 315.946 C 263.793 316.670,125.229 316.601,124.504 315.876 C 123.822 315.194,123.746 274.423,124.424 273.155 C 124.807 272.439,125.498 272.400,137.837 272.400 C 154.523 272.400,156.005 272.002,158.255 266.914 L 159.200 264.777 159.200 211.032 C 159.200 160.703,159.156 157.189,158.500 155.739 C 155.938 150.070,155.138 149.830,138.333 149.680 C 127.975 149.588,124.767 149.442,124.439 149.047 C 123.812 148.291,123.808 106.913,124.435 106.157 C 125.287 105.131,264.236 105.346,264.786 106.374 " stroke="none" fill="#6c3c43" fill-rule="evenodd"></path></g></svg>